<?xml version="1.0" standalone="no"?>
<!DOCTYPE svg PUBLIC "-//W3C//DTD SVG 20010904//EN"
 "http://www.w3.org/TR/2001/REC-SVG-20010904/DTD/svg10.dtd">
<svg version="1.0" xmlns="http://www.w3.org/2000/svg"
 width="512.000000pt" height="512.000000pt" viewBox="0 0 512.000000 512.000000"
 preserveAspectRatio="xMidYMid meet">
<metadata>
Created by potrace 1.14, written by Peter Selinger 2001-2017
</metadata>
<g transform="translate(0.000000,512.000000) scale(0.100000,-0.100000)"
fill="#000000" stroke="none">
<path d="M2450 4689 c0 -16 -26 -39 -45 -39 -9 0 -15 -5 -13 -12 4 -12 -32
-55 -43 -51 -3 1 -5 -9 -3 -23 1 -14 0 -23 -3 -20 -6 6 -43 -37 -43 -49 0 -4
-11 -21 -25 -37 -14 -16 -23 -33 -20 -37 2 -5 -6 -14 -20 -21 -14 -8 -21 -18
-18 -27 3 -8 0 -19 -8 -24 -8 -4 -15 -13 -15 -19 -1 -5 -2 -15 -3 -21 0 -5 -5
-8 -9 -5 -4 2 -14 -10 -22 -27 -16 -37 -35 -59 -43 -50 -4 3 -5 -4 -2 -16 2
-11 0 -21 -5 -21 -4 0 -22 -22 -39 -50 -17 -27 -36 -50 -42 -50 -6 0 -8 -7 -5
-15 3 -9 -1 -18 -8 -21 -8 -3 -13 -13 -12 -22 3 -18 -16 -42 -34 -42 -6 0 -9
-4 -6 -9 4 -5 -4 -22 -17 -38 -12 -15 -29 -40 -36 -55 -8 -16 -20 -28 -27 -28
-7 0 -11 -8 -10 -17 2 -10 -8 -26 -21 -36 -13 -10 -21 -22 -18 -27 3 -5 -2
-15 -11 -24 -8 -9 -13 -20 -9 -25 3 -6 -3 -15 -14 -20 -10 -6 -24 -24 -29 -41
-6 -16 -15 -30 -20 -30 -4 0 -16 -16 -25 -35 -9 -20 -23 -38 -31 -41 -8 -3
-12 -12 -10 -19 3 -7 -3 -19 -13 -26 -11 -8 -25 -29 -32 -46 -7 -18 -17 -30
-22 -27 -5 3 -6 -2 -3 -11 4 -9 -2 -23 -14 -34 -12 -10 -26 -30 -32 -45 -5
-15 -14 -24 -20 -21 -9 6 -14 -8 -11 -29 1 -4 -10 -19 -24 -32 -14 -13 -23
-29 -20 -34 3 -6 -1 -10 -10 -10 -9 0 -14 -4 -10 -9 3 -5 -3 -16 -12 -23 -10
-7 -18 -17 -19 -23 -1 -23 -24 -64 -43 -77 -12 -8 -18 -18 -14 -22 4 -3 -6
-19 -21 -35 -15 -16 -27 -32 -27 -35 1 -4 -3 -14 -8 -24 -6 -9 -11 -12 -11 -7
0 6 -9 -9 -21 -32 -12 -24 -26 -40 -32 -36 -5 3 -7 1 -3 -5 3 -6 2 -13 -4 -17
-6 -4 -8 -11 -5 -16 4 -5 -1 -12 -10 -15 -9 -4 -14 -12 -11 -19 2 -7 -6 -21
-19 -31 -13 -10 -22 -21 -19 -26 3 -4 -5 -17 -17 -29 -11 -11 -22 -26 -23 -33
-1 -7 -12 -23 -24 -36 -12 -13 -22 -29 -22 -35 0 -7 -9 -20 -20 -30 -11 -10
-20 -24 -20 -31 0 -7 -4 -14 -10 -16 -5 -1 -11 -14 -14 -28 -2 -14 -9 -24 -15
-22 -6 1 -11 -5 -11 -14 0 -8 -5 -12 -10 -9 -6 4 -10 3 -9 -2 4 -22 -2 -43
-11 -38 -5 3 -10 -1 -10 -9 0 -9 -5 -16 -10 -16 -6 0 -10 -6 -8 -12 1 -7 -10
-26 -25 -42 -15 -16 -25 -31 -23 -34 3 -2 -6 -15 -19 -28 -14 -14 -22 -31 -18
-40 3 -9 0 -14 -8 -12 -9 2 -14 -5 -13 -19 1 -13 -4 -23 -12 -23 -8 0 -14 -6
-14 -13 0 -7 -12 -26 -27 -43 -16 -18 -29 -37 -31 -44 -4 -19 -38 -60 -44 -54
-3 3 -5 -6 -4 -18 0 -14 -4 -22 -11 -20 -7 1 -13 -5 -13 -13 0 -8 -4 -15 -10
-15 -5 0 -10 -9 -10 -21 0 -11 -4 -18 -9 -15 -5 4 -8 -2 -7 -11 2 -10 -5 -25
-14 -33 -9 -8 -25 -30 -34 -48 -9 -18 -24 -36 -31 -39 -8 -3 -13 -9 -10 -13 2
-4 -7 -20 -20 -34 -14 -15 -25 -35 -25 -46 0 -10 -9 -22 -20 -25 -11 -3 -20
-15 -20 -25 0 -10 -5 -22 -11 -25 -6 -4 -8 -12 -6 -19 3 -7 -8 -21 -24 -32
-29 -19 -29 -20 -29 -118 0 -93 1 -99 25 -118 14 -11 25 -29 25 -40 0 -12 5
-18 13 -15 7 3 23 -6 36 -19 13 -13 28 -24 35 -23 18 2 56 -13 56 -22 0 -4 9
-6 20 -4 11 2 18 0 15 -6 -5 -8 9 -13 18 -6 2 1 11 -6 21 -15 10 -10 24 -18
32 -18 8 0 14 -5 14 -10 0 -6 11 -8 26 -6 16 3 27 0 31 -10 3 -8 11 -14 19
-14 7 0 29 -9 49 -20 20 -11 40 -20 46 -20 6 0 17 -7 26 -15 12 -12 18 -13 29
-4 11 9 14 9 14 0 0 -7 5 -9 10 -6 6 4 9 1 8 -7 -2 -7 3 -12 11 -10 8 2 17 -1
20 -5 10 -13 50 -33 66 -33 9 0 18 -7 21 -15 4 -9 16 -13 35 -11 16 2 29 -1
29 -6 0 -5 13 -14 30 -19 17 -6 30 -15 30 -20 0 -4 7 -6 15 -3 8 4 15 1 15 -6
0 -6 5 -8 10 -5 5 3 10 1 10 -5 0 -6 5 -8 10 -5 6 3 10 1 10 -5 0 -7 7 -10 15
-6 8 3 15 1 15 -3 0 -5 9 -7 20 -4 14 4 20 0 20 -11 0 -9 3 -15 8 -15 22 4 42
-2 37 -11 -4 -6 -3 -10 2 -9 23 4 43 -2 38 -11 -4 -6 -3 -10 2 -9 20 4 44 -2
39 -9 -2 -4 5 -9 16 -9 12 -1 24 -7 28 -13 4 -6 13 -11 21 -9 18 2 79 -23 79
-33 0 -4 8 -8 18 -8 9 0 25 -7 35 -14 10 -8 26 -12 36 -9 11 3 21 -2 24 -11 4
-9 13 -13 20 -10 8 3 17 -2 20 -10 4 -9 13 -13 20 -10 8 3 17 -2 20 -10 4 -9
13 -13 20 -10 8 3 17 -1 20 -10 3 -9 16 -13 31 -12 14 2 26 0 26 -4 0 -7 101
-54 113 -52 4 1 7 -2 7 -7 0 -5 14 -14 30 -20 18 -6 30 -6 30 0 0 5 9 0 20
-11 12 -12 25 -18 30 -15 6 4 13 -1 16 -9 3 -9 10 -14 14 -11 5 3 15 -2 23
-10 9 -8 22 -15 30 -15 7 0 17 -3 21 -7 8 -8 14 -10 47 -12 11 0 17 -6 14 -11
-4 -6 5 -10 19 -10 14 0 26 -4 26 -10 0 -5 7 -10 16 -10 8 0 22 -7 31 -15 8
-8 18 -13 23 -10 4 3 10 -2 14 -10 8 -22 198 -22 216 0 7 8 19 15 27 15 7 0
16 6 19 14 3 8 12 12 20 9 7 -3 17 2 20 11 5 12 10 13 25 5 13 -7 19 -6 19 1
0 6 5 8 10 5 6 -3 10 1 10 9 0 9 6 13 14 10 7 -3 21 2 30 11 9 9 20 13 26 10
5 -3 10 1 10 9 0 9 6 13 14 10 7 -3 20 2 29 10 9 9 23 13 32 10 9 -4 20 -1 25
5 6 11 24 17 53 20 5 1 5 6 2 11 -6 10 7 14 34 11 7 -2 10 2 6 8 -4 7 4 11 19
11 15 0 26 6 26 13 0 8 11 12 31 11 18 -1 32 3 36 12 3 8 9 12 13 9 5 -3 14 0
22 7 7 7 20 14 28 16 8 2 18 9 22 15 4 7 8 8 8 4 0 -5 12 -2 28 6 15 8 46 21
69 27 24 7 40 17 36 23 -4 6 2 8 15 5 12 -4 22 -2 22 3 0 6 14 15 30 20 17 6
30 15 30 19 0 4 9 6 21 3 12 -3 24 0 29 6 4 7 13 14 21 15 32 6 69 26 69 37 0
6 7 9 15 5 8 -3 15 -1 15 5 0 6 5 7 10 4 6 -3 10 -1 10 5 0 6 6 10 13 9 31 -4
47 2 48 19 0 9 3 12 5 5 4 -8 20 -3 52 16 26 15 53 26 61 23 8 -3 11 0 7 7 -7
10 11 16 42 12 6 -1 12 3 12 9 0 6 5 8 10 5 6 -3 10 -2 10 4 0 6 7 8 15 5 8
-4 15 -1 15 5 0 11 37 31 69 37 8 1 17 8 21 15 5 6 17 9 29 6 12 -3 21 -1 21
4 0 5 11 11 25 15 14 3 25 11 25 16 0 6 6 8 14 5 8 -3 17 1 20 9 3 8 14 14 25
14 11 0 23 4 26 10 3 5 15 10 26 10 11 0 31 7 44 16 14 9 25 13 25 9 0 -3 7 1
16 9 8 9 19 14 24 11 5 -3 10 -1 12 4 1 5 10 11 18 13 8 2 21 9 28 16 7 6 24
12 38 12 14 0 27 7 30 15 5 11 10 12 18 5 9 -7 19 -1 34 20 14 18 28 27 37 24
10 -4 15 0 15 12 0 10 11 28 25 40 25 21 26 25 23 125 -2 57 -7 103 -11 101
-12 -4 -39 27 -32 38 3 6 -1 13 -9 16 -9 3 -16 15 -16 26 0 22 -22 48 -40 48
-7 0 -10 6 -7 14 3 8 -1 20 -8 26 -8 7 -12 16 -9 21 3 5 2 8 -3 7 -4 -2 -8 -1
-9 2 -3 18 -27 50 -37 50 -7 0 -13 10 -14 22 -1 12 -13 31 -26 42 -13 12 -23
29 -21 39 1 9 -2 15 -7 11 -9 -5 -13 9 -10 33 1 7 -3 13 -9 13 -18 0 -37 24
-34 43 1 9 -3 17 -8 17 -15 0 -37 32 -38 53 0 10 -4 16 -9 13 -5 -3 -17 11
-26 32 -10 20 -27 43 -37 50 -10 7 -15 18 -12 24 4 6 2 13 -4 17 -6 3 -12 13
-14 21 -2 7 -13 24 -26 36 -15 14 -20 28 -16 40 4 11 4 16 0 12 -10 -9 -57 33
-50 44 3 5 -5 19 -18 31 -14 13 -23 28 -21 34 2 6 -8 20 -23 32 -15 12 -24 21
-20 21 4 0 1 10 -6 23 -7 12 -12 24 -13 27 -1 14 -33 49 -38 43 -4 -3 -7 4 -7
16 0 13 -9 30 -20 39 -12 10 -22 27 -23 39 0 12 -3 20 -6 18 -8 -9 -40 27 -35
40 3 7 -2 15 -11 19 -9 3 -13 10 -10 16 3 5 0 10 -8 10 -8 0 -18 7 -21 16 -4
10 -2 13 7 9 6 -4 5 -1 -3 7 -8 7 -16 20 -18 28 -2 8 -11 21 -20 28 -9 7 -17
16 -18 20 -2 20 -21 53 -29 52 -6 0 -12 7 -14 17 -3 16 -16 35 -61 90 -6 7
-15 24 -22 38 -6 14 -15 25 -20 25 -4 0 -7 3 -6 8 5 17 -14 52 -28 52 -8 0
-12 5 -9 10 3 6 2 10 -4 10 -5 0 -8 9 -6 20 2 11 0 18 -6 15 -5 -4 -9 1 -9 10
0 9 -4 13 -10 10 -5 -3 -10 0 -10 8 0 8 -11 26 -25 41 -14 15 -25 34 -25 42 0
7 -5 14 -11 14 -5 0 -8 4 -5 9 3 5 -1 11 -9 15 -8 3 -15 11 -15 17 0 7 -8 21
-17 32 -13 15 -14 18 -3 12 8 -5 3 4 -13 20 -15 15 -30 38 -33 51 -3 12 -12
25 -20 28 -14 5 -39 53 -36 68 1 5 -3 7 -10 5 -6 -1 -14 7 -16 18 -2 11 -14
28 -26 38 -11 11 -20 25 -18 32 1 7 -5 15 -13 19 -9 3 -13 11 -10 16 4 6 -3
19 -14 29 -12 10 -21 25 -21 32 0 8 -14 29 -30 47 -16 19 -32 42 -35 53 -4 10
-13 19 -21 19 -8 0 -13 3 -13 8 3 18 -2 32 -18 48 -10 10 -19 21 -19 26 -1 4
-2 13 -3 19 0 5 -5 8 -9 5 -4 -2 -8 4 -9 14 -1 10 -11 28 -22 39 -12 12 -21
28 -21 36 0 8 -9 19 -20 25 -11 6 -20 18 -20 27 0 8 -9 24 -21 33 -11 10 -21
28 -22 39 0 11 -3 18 -5 16 -7 -7 -43 36 -37 45 3 4 0 10 -5 12 -6 2 -12 13
-13 26 0 12 -6 22 -12 22 -11 0 -40 41 -37 52 1 4 -9 19 -23 32 -14 14 -25 31
-25 38 0 7 -9 19 -21 26 -14 9 -19 20 -16 33 3 10 1 19 -5 19 -15 0 -38 27
-38 44 0 9 -7 16 -16 16 -18 0 -44 23 -44 39 0 7 -38 11 -110 11 -72 0 -110
-4 -110 -11z m-104 -2339 c0 -756 -4 -1360 -9 -1360 -4 0 -5 -6 -1 -12 4 -8 3
-10 -2 -5 -5 5 -9 14 -9 20 -1 7 -7 11 -13 9 -7 -1 -20 4 -28 13 -19 18 -38
20 -28 3 5 -9 3 -9 -9 1 -9 7 -15 17 -12 21 3 5 -6 7 -20 6 -14 -2 -30 3 -37
11 -6 8 -17 12 -25 9 -8 -3 -16 1 -19 9 -4 8 -15 15 -25 15 -10 0 -19 5 -19
10 0 6 -9 10 -20 10 -11 0 -20 5 -20 10 0 6 -16 10 -36 10 -21 0 -33 4 -29 10
6 10 -7 14 -31 11 -7 -1 -15 6 -18 15 -3 9 -13 14 -20 11 -8 -3 -17 1 -20 8
-3 8 -12 12 -19 9 -8 -3 -17 1 -20 9 -4 10 -17 14 -36 13 -22 -1 -31 2 -31 13
0 8 -3 11 -7 8 -3 -4 -13 -1 -22 7 -9 8 -20 14 -24 14 -17 0 -67 25 -67 34 0
6 -9 8 -20 5 -11 -3 -20 -1 -20 5 0 5 -4 7 -9 3 -5 -3 -12 -1 -16 5 -4 6 -11
8 -16 5 -5 -4 -9 -1 -9 5 0 6 -4 8 -10 5 -5 -3 -10 -2 -10 4 0 6 -11 13 -25
17 -14 3 -25 11 -25 16 0 6 -7 7 -15 4 -9 -3 -18 1 -22 10 -3 8 -11 13 -18 10
-7 -2 -34 6 -61 20 -26 13 -53 24 -61 24 -7 0 -13 3 -13 8 0 10 -50 32 -73 32
-10 0 -25 7 -34 15 -8 8 -19 13 -24 9 -5 -3 -12 2 -15 10 -3 9 -11 13 -17 9
-5 -3 -16 2 -23 12 -8 10 -17 15 -21 12 -3 -4 -15 1 -26 10 -10 10 -21 17 -23
16 -14 -9 -44 -1 -44 12 0 12 -4 13 -18 6 -14 -8 -18 -5 -19 12 -1 12 2 24 7
27 4 3 10 12 12 20 2 8 12 24 23 36 11 11 21 26 23 33 1 7 11 22 22 34 11 11
20 27 20 34 0 7 9 18 20 25 11 7 20 21 20 30 0 10 5 18 11 18 5 0 7 5 4 10 -3
6 -2 10 3 10 6 0 19 18 31 40 11 22 18 40 15 40 -2 0 1 6 8 14 7 8 16 12 21 9
7 -4 9 1 11 29 1 7 11 22 24 35 12 12 22 29 22 36 0 8 7 17 15 21 8 3 15 12
15 21 0 8 5 15 11 15 6 0 8 7 5 16 -3 8 -2 13 2 10 5 -3 16 4 25 15 9 10 15
19 12 19 -8 0 36 78 51 91 8 6 14 17 14 23 0 7 11 23 25 36 13 12 22 27 19 32
-3 5 6 18 20 29 15 11 24 25 21 29 -7 12 31 51 40 42 4 -4 6 0 4 8 -3 16 26
76 47 98 8 7 14 19 14 27 0 7 11 20 25 29 14 9 22 22 19 30 -3 8 4 20 15 28
12 8 26 29 32 46 6 18 15 29 20 26 5 -3 12 8 15 25 4 17 13 31 20 31 7 0 11 6
8 14 -3 8 6 25 21 40 14 14 24 28 23 31 -2 3 8 17 21 31 13 13 21 27 18 30 -3
4 5 17 19 31 13 13 24 30 24 38 0 8 4 15 10 15 11 0 44 60 33 60 -5 0 -1 5 7
10 8 5 15 13 15 17 1 14 22 45 30 44 5 -1 10 6 11 15 2 9 9 21 16 25 7 5 9 9
3 9 -5 0 -2 5 8 11 9 6 15 14 12 20 -4 5 -1 9 6 9 7 0 9 3 6 7 -4 3 2 13 14
21 11 7 18 19 16 25 -4 12 34 53 46 49 4 -1 5 9 3 23 -3 14 -1 23 5 20 8 -5
11 2 8 21 0 3 14 19 32 35 19 17 27 29 18 29 -8 0 -1 12 18 30 22 21 30 36 26
48 -3 9 -3 14 1 10 10 -9 44 24 39 38 -2 7 7 21 22 32 14 11 25 24 24 29 -2
14 1 23 9 23 5 0 8 -612 8 -1360z m452 1353 c-5 -18 14 -53 28 -53 8 0 14 -6
12 -12 -1 -7 9 -28 22 -46 14 -19 25 -38 25 -43 0 -5 4 -8 9 -6 8 2 28 -35 30
-55 1 -4 11 -15 24 -24 13 -9 21 -22 18 -30 -3 -7 2 -18 11 -22 10 -6 14 -16
10 -26 -4 -9 -2 -15 6 -13 7 1 11 -4 10 -10 -2 -7 4 -13 12 -13 8 0 15 -8 15
-18 0 -19 33 -56 42 -47 2 3 4 -5 3 -18 -1 -13 7 -28 19 -37 12 -8 22 -22 21
-30 0 -8 10 -24 23 -37 12 -12 22 -29 22 -38 0 -8 5 -15 10 -15 6 0 10 -8 10
-18 0 -10 9 -24 20 -32 11 -8 20 -22 20 -32 0 -10 5 -18 11 -18 5 0 7 -5 3
-12 -4 -7 -3 -8 4 -4 6 3 16 -3 22 -14 6 -11 8 -20 4 -20 -4 0 5 -12 20 -26
14 -15 26 -33 26 -40 0 -8 9 -19 20 -26 11 -7 20 -23 20 -35 0 -14 6 -23 15
-23 18 0 20 -16 3 -23 -8 -4 -4 -8 9 -12 13 -4 20 -11 17 -16 -3 -5 1 -9 9 -9
10 0 13 -7 10 -20 -4 -14 0 -20 11 -20 10 0 14 -4 11 -10 -3 -5 0 -10 8 -10
10 0 13 -7 10 -20 -4 -14 0 -20 11 -20 10 0 14 -4 11 -10 -3 -5 -2 -10 4 -10
5 0 12 -8 16 -19 3 -10 16 -31 29 -46 14 -16 22 -35 18 -43 -3 -10 -1 -13 6
-8 11 6 17 -6 13 -27 -1 -4 6 -10 14 -13 8 -4 15 -13 15 -21 0 -8 5 -11 12 -7
8 5 9 0 6 -14 -4 -12 -2 -20 2 -17 5 3 11 -4 15 -15 4 -11 11 -18 16 -15 5 4
9 -3 9 -14 0 -12 5 -21 11 -21 5 0 8 -4 5 -9 -3 -5 1 -11 9 -15 8 -3 15 -12
15 -21 0 -8 5 -15 10 -15 6 0 10 -7 10 -15 0 -8 3 -15 8 -15 4 0 13 -9 20 -21
11 -17 11 -20 0 -14 -7 3 -5 0 4 -8 10 -8 15 -17 12 -20 -4 -3 5 -16 18 -29
14 -13 24 -31 22 -41 -1 -9 1 -15 5 -13 8 6 42 -30 35 -37 -2 -2 9 -17 24 -34
16 -16 28 -37 26 -46 -1 -9 3 -20 8 -24 7 -4 8 -1 3 7 -5 9 -4 11 3 6 7 -4 12
-14 12 -22 0 -9 5 -12 12 -8 6 4 8 3 5 -3 -4 -6 0 -19 8 -29 8 -10 15 -25 15
-32 0 -17 26 -43 34 -35 3 4 6 -4 6 -16 0 -24 23 -54 34 -44 3 4 6 -4 6 -16 0
-12 11 -33 25 -47 14 -14 23 -29 20 -34 -3 -5 4 -11 15 -15 11 -4 18 -10 15
-15 -3 -5 -1 -11 5 -15 6 -4 8 -11 5 -16 -4 -5 -2 -9 3 -9 6 0 12 -7 16 -15 7
-19 -3 -47 -15 -39 -5 3 -18 -2 -30 -10 -12 -8 -27 -12 -34 -10 -6 3 -17 -2
-24 -10 -7 -8 -20 -12 -28 -9 -11 4 -14 2 -9 -5 6 -10 -4 -14 -30 -11 -3 0
-12 -8 -20 -18 -7 -10 -14 -14 -14 -10 0 5 -10 1 -22 -7 -12 -9 -33 -16 -45
-16 -13 0 -23 -4 -23 -10 0 -5 -9 -10 -20 -10 -11 0 -20 -5 -20 -11 0 -6 -7
-9 -15 -5 -8 3 -15 1 -15 -5 0 -6 -4 -8 -9 -5 -5 3 -12 -1 -15 -10 -3 -8 -10
-13 -15 -10 -5 3 -14 -1 -21 -9 -7 -8 -16 -12 -21 -9 -13 8 -50 -6 -44 -16 3
-4 -3 -7 -12 -6 -10 2 -20 0 -23 -3 -13 -15 -71 -41 -80 -36 -6 4 -9 1 -8 -7
2 -7 -8 -14 -22 -16 -38 -5 -80 -23 -80 -35 0 -6 -3 -7 -7 -4 -3 4 -12 2 -20
-4 -7 -6 -13 -8 -13 -5 0 4 -7 0 -16 -8 -8 -9 -20 -14 -25 -11 -5 4 -9 2 -9
-3 0 -6 -11 -13 -25 -16 -14 -4 -25 -11 -25 -16 0 -5 -9 -7 -20 -5 -11 2 -26
-2 -33 -9 -7 -7 -20 -12 -29 -10 -9 1 -19 -4 -22 -12 -3 -8 -15 -14 -26 -14
-12 0 -18 -4 -15 -10 3 -5 -3 -10 -14 -10 -11 0 -23 -4 -26 -10 -3 -5 -20 -10
-36 -10 -16 0 -32 -6 -35 -14 -3 -8 -14 -13 -25 -11 -11 2 -17 0 -14 -4 3 -5
-6 -12 -20 -15 -14 -4 -25 -11 -25 -17 0 -6 -5 -7 -12 -3 -6 4 -16 1 -22 -7
-6 -8 -24 -15 -41 -15 -20 0 -29 -4 -27 -13 2 -9 -4 -12 -15 -9 -18 5 -46 -14
-37 -26 2 -3 1 -3 -3 0 -5 3 -8 620 -9 1370 0 1113 2 1364 13 1364 7 0 12 -3
11 -7z"/>
</g>
</svg>
